<?xml version="1.0" encoding="UTF-8" standalone="no"?>
<svg
   xmlns:dc="http://purl.org/dc/elements/1.1/"
   xmlns:cc="http://creativecommons.org/ns#"
   xmlns:rdf="http://www.w3.org/1999/02/22-rdf-syntax-ns#"
   xmlns:svg="http://www.w3.org/2000/svg"
   xmlns="http://www.w3.org/2000/svg"
   viewBox="0 0 236.224 124.28053"
   height="124.28053"
   width="236.224"
   xml:space="preserve"
   id="svg2"
   version="1.1"><metadata
     id="metadata8"><rdf:RDF><cc:Work
         rdf:about=""><dc:format>image/svg+xml</dc:format><dc:type
           rdf:resource="http://purl.org/dc/dcmitype/StillImage" /></cc:Work></rdf:RDF></metadata><defs
     id="defs6"><clipPath
       id="clipPath22"
       clipPathUnits="userSpaceOnUse"><path
         id="path20"
         d="M 0,93.21 H 177.168 V 0 H 0 Z" /></clipPath></defs><g
     transform="matrix(1.3333333,0,0,-1.3333333,0,124.28053)"
     id="g10"><text
       id="text14"
       style="font-variant:normal;font-weight:bold;font-stretch:normal;font-size:16px;font-family:Arial;-inkscape-font-specification:Arial-BoldMT;writing-mode:lr-tb;fill:#14171c;fill-opacity:1;fill-rule:nonzero;stroke:none"
       transform="matrix(1,0,0,-1,91.4248,57.8857)"><tspan
         id="tspan12"
         y="0"
         x="0 12.992 25.983999 38.096001 50.208 56.096001 69.071999">RUSSIAN</tspan></text>
<g
       id="g16"><g
         clip-path="url(#clipPath22)"
         id="g18" /></g><text
       id="text28"
       style="font-variant:normal;font-weight:bold;font-stretch:normal;font-size:16px;font-family:Arial;-inkscape-font-specification:Arial-BoldMT;writing-mode:lr-tb;fill:#14171c;fill-opacity:1;fill-rule:nonzero;stroke:none"
       transform="matrix(1,0,0,-1,91.4248,40.9893)"><tspan
         id="tspan24"
         y="0"
         x="0 14.768 20.656 33.647999 45.759998 58.751999">MINER </tspan><tspan
         id="tspan26"
         y="16.896"
         x="0 12.576 26.464001 32.352001">COIN</tspan></text>
<g
       transform="translate(40.5645,91.7144)"
       id="g30"><path
         id="path32"
         style="fill:#ed1e24;fill-opacity:1;fill-rule:nonzero;stroke:none"
         d="m 0,0 v -45.103 l -39.067,-22.555 v 45.102 z" /></g><g
       transform="translate(40.5747,91.708)"
       id="g34"><path
         id="path36"
         style="fill:#d22126;fill-opacity:1;fill-rule:nonzero;stroke:none"
         d="m 0,0 v -45.103 l 39.067,-22.555 v 45.102 z" /></g><g
       transform="translate(79.6372,24.0537)"
       id="g38"><path
         id="path40"
         style="fill:#ef3e36;fill-opacity:1;fill-rule:nonzero;stroke:none"
         d="m 0,0 -39.059,-22.554 -39.069,22.553 39.059,22.554 z" /></g><g
       transform="translate(40.5684,24.0508)"
       id="g42"><path
         id="path44"
         style="fill:#ed1e24;fill-opacity:1;fill-rule:nonzero;stroke:none"
         d="M 0,0 V 22.555 L 19.537,33.833 V 11.279 Z" /></g><g
       transform="translate(40.5674,24.0488)"
       id="g46"><path
         id="path48"
         style="fill:#d22126;fill-opacity:1;fill-rule:nonzero;stroke:none"
         d="m 0,0 v 22.555 l -19.537,11.28 V 11.28 Z" /></g><g
       transform="translate(21.0381,57.8848)"
       id="g50"><path
         id="path52"
         style="fill:#ef3e36;fill-opacity:1;fill-rule:nonzero;stroke:none"
         d="M 0,0 19.533,11.279 39.07,0 19.538,-11.277 Z" /></g></g></svg>